<svg xmlns="http://www.w3.org/2000/svg" width="60" height="60" viewBox="0 0 60 60"><defs><mask id="emlpb" width="2" height="2" x="-1" y="-1"><path fill="#fff" d="M5 2h50v50H5z"/><path d="M5 27C5 13.193 16.193 2 30 2s25 11.193 25 25-11.193 25-25 25S5 40.807 5 27z"/></mask><filter id="emlpa" width="82" height="85" x="-11" y="-17" filterUnits="userSpaceOnUse"><feOffset dy="-3" in="SourceGraphic" result="FeOffset1039Out"/><feGaussianBlur in="FeOffset1039Out" result="FeGaussianBlur1040Out" stdDeviation="2.4 2.4"/></filter></defs><g><g><g transform="rotate(-180 30 27)"><g filter="url(#emlpa)"><path fill="none" d="M5 27C5 13.193 16.193 2 30 2s25 11.193 25 25-11.193 25-25 25S5 40.807 5 27z" mask="url(&quot;#emlpb&quot;)"/><path fill-opacity=".16" d="M5 27C5 13.193 16.193 2 30 2s25 11.193 25 25-11.193 25-25 25S5 40.807 5 27z"/></g><path fill="#fff" d="M5 27C5 13.193 16.193 2 30 2s25 11.193 25 25-11.193 25-25 25S5 40.807 5 27z"/></g><g transform="rotate(-180 29.975 26.95)"><g><path fill="none" stroke="#000" stroke-linecap="round" stroke-miterlimit="20" d="M25.951 18.903l8 8"/></g><g transform="rotate(90 29.975 30.975)"><path fill="none" stroke="#000" stroke-linecap="round" stroke-miterlimit="20" d="M25.951 26.951L34 35"/></g></g></g></g></svg>