<svg xmlns="http://www.w3.org/2000/svg" xmlns:xlink="http://www.w3.org/1999/xlink" width="434.892" height="141.868" viewBox="0 0 434.892 141.868"><defs><style>.a{fill:#fff;}.b{filter:url(#a);}</style><filter id="a" x="0" y="0" width="434.892" height="141.868" filterUnits="userSpaceOnUse"><feOffset dy="3" input="SourceAlpha"/><feGaussianBlur stdDeviation="5" result="b"/><feFlood flood-opacity="0.161"/><feComposite operator="in" in2="b"/><feComposite in="SourceGraphic"/></filter></defs><g class="b" transform="matrix(1, 0, 0, 1, 0, 0)"><path class="a" d="M6.858-19.116c0,4.1.486,10.422,1.836,14.2.27.81.54,1.458,1.512,1.458A17.761,17.761,0,0,0,14.58-4.482c.972-.324,1.728-.648,1.728-1.458a4.168,4.168,0,0,0-.108-.81,14.3,14.3,0,0,1-.486-3.672,19.449,19.449,0,0,1,6.858-14.364c.81-.7,3.564-2.7,4.59-2.7s1.026,1.242,1.026,4.1c0,1.674-.162,7.668-.648,8.964-.108.324-.378.648-.7.648-1.134,0-2.106-3.51-2.268-4.374-.216-1.35-.27-2-1.566-2a9.241,9.241,0,0,0-4.1,1.188,1.934,1.934,0,0,0-1.026,1.89c0,3.888,2.484,8.154,5.454,10.53a1.722,1.722,0,0,1,.756,1.458c0,.864-1.62,2.808-2.268,3.456a1.547,1.547,0,0,0-.594,1.026c0,.864.972,1.62,1.62,2.16.756.648,3.078,2.484,3.942,2.484a2.733,2.733,0,0,0,1.89-1.08,28.939,28.939,0,0,0,3.51-5.508,1.936,1.936,0,0,1,2-1.35c8.8-.756,14.31-7.83,14.31-16.416,0-6.588-3.186-11.826-9.342-14.31a19.609,19.609,0,0,0-2.754-.81c-.7-.162-1.188-.27-1.458-.918a12.66,12.66,0,0,1-.432-2.916,2.6,2.6,0,0,1,.378-1.3,2.281,2.281,0,0,0,.432-1.08c0-.648-.7-.7-1.134-.7-1.89,0-4.428-.27-6.588-.27-.81,0-1.944.054-1.944,1.134a7.126,7.126,0,0,0,.378,1.728,25.876,25.876,0,0,1,.756,3.348c0,1.026-.7,1.4-1.512,1.728a21.87,21.87,0,0,0-9.4,7.128c-.216.27-.486.54-.756.54a.545.545,0,0,1-.486-.594c0-.27.972-4.482,2.43-5.454.324-.216.432-.27.432-.54,0-.378-.432-.648-1.458-1.026A64.806,64.806,0,0,0,9.4-36.882c-.648,0-.756.864-.81,1.3C7.506-29.16,6.858-25.758,6.858-19.116Zm29.808-8.532c.918,0,4.266,1.836,4.266,7.236,0,5.994-4.05,8.694-5.13,8.694a.761.761,0,0,1-.7-.756,1.6,1.6,0,0,1,.108-.54,67.907,67.907,0,0,0,.648-9.342c0-1.4-.108-2.808-.108-4.05C35.748-27.054,35.91-27.648,36.666-27.648ZM83.43-42.066a8.372,8.372,0,0,0-2.322.864c-3.078,1.3-10.8,1.89-14.31,1.944H65.556c-1.566,0-1.728,0-1.728.81v.54c0,1.026.324,7.128,1.566,7.128a2.629,2.629,0,0,0,.648-.054c1.4-.216,7.29-1.3,7.452-1.3.216,0,1.08.108,1.08.756,0,.54-.378.864-.756,1.242-.918,1.026-1.728,2-2.754,3.024-1.89,1.836-10.854,10.746-12.2,11.826-1.134.864-1.674,1.35-1.674,2,0,1.026,4.212,5.454,5.454,5.454.216,0,.648-.378,1.4-1.35a71.757,71.757,0,0,1,6.642-6.8,15.422,15.422,0,0,1,10.422-4.158c4.158,0,7.884,2.052,7.884,6.642,0,3.564-2.592,6.264-3.888,6.264a1.507,1.507,0,0,1-1.3-1.026,9.391,9.391,0,0,0-1.458-2.7,9.521,9.521,0,0,0-7.29-3.456c-4.158,0-8.1,3.186-8.1,7.506,0,6.21,6.858,8.262,11.934,8.262,9.4,0,18.306-5.13,18.306-15.444a12.733,12.733,0,0,0-9.45-12.582,17.893,17.893,0,0,0-3.78-.648c-.216,0-.432.054-.594.054A1.2,1.2,0,0,1,82.134-28.4a1.412,1.412,0,0,1,.486-.972,45.739,45.739,0,0,1,6.642-5.454c.27-.162.594-.432.594-.756C89.856-36.774,85.752-42.066,83.43-42.066ZM77.814-5.994a1.273,1.273,0,0,1-1.35,1.188c-1.242,0-3.078-.7-3.078-2.16a1.554,1.554,0,0,1,1.728-1.458A2.689,2.689,0,0,1,77.814-5.994Zm56.322-37.584c-.432,0-.7.432-.972.81-2.754,3.672-6.75,7.074-10.26,10.044-2.16,1.836-6.048,4.7-7.506,6.8a6.778,6.778,0,0,0-1.242,4.05,8.381,8.381,0,0,0,1.89,5.184,67.6,67.6,0,0,0,5.994,6.534A153.269,153.269,0,0,1,132.624,1.08c.7.864,1.35,1.35,1.674,1.35,1.512,0,6.372-4.536,6.372-6.21,0-1.134-2.7-3.618-4.428-5.13-3.186-2.862-6.372-5.724-9.4-8.748a4.868,4.868,0,0,1-.486-.54c-.918-.972-2.214-2.376-2.214-3.294a2.64,2.64,0,0,1,1.026-1.782q3.564-3.24,7.29-6.318c2.268-1.836,4.428-3.564,6.75-5.292a2.019,2.019,0,0,1,1.35-.54c.648,0,.972-.054.972-.378,0-.594-2.052-2.7-3.132-3.834l-.594-.594c-.918-.918-1.836-1.89-2.754-2.862A1.4,1.4,0,0,0,134.136-43.578Zm38.988,9.936c.27-.486.432-.54.972-.648a.6.6,0,0,0,.7-.594c0-.486-.7-.81-1.134-1.026-.162-.108-.486-.27-.918-.486a35.1,35.1,0,0,0-4.59-2.214c-.378,0-.54.54-.81,1.026-.648,1.458-1.3,2.97-2.052,4.374-.162.27-.432.81-.81.81a.936.936,0,0,1-.756-.918,7.294,7.294,0,0,1,.918-2.106,3.206,3.206,0,0,1,.216-.432c.81-1.674,1.566-3.348,2.376-4.968.216-.594.378-.756.972-.864.216-.054.648-.108.648-.648,0-.486-.756-.81-1.134-.972-.648-.27-4.7-1.944-5.022-1.944-.432,0-.486.486-.81,1.4-.432,1.566-1.026,3.024-1.566,4.536a6.056,6.056,0,0,0-.27.7c-.432,1.08-.594,1.512-1.134,1.566-.486.054-.648,0-1.188.864-.54.81-2.16,4-2.16,4.914,0,.378.216.54.54.7,1.134.918,2.268,1.89,3.348,2.862.756.7,1.458,1.242,1.458,2.052a7.858,7.858,0,0,1-1.4,2.862c-.54.918-.81,1.3-1.944,1.3h-.54c-.432,0-1.026,0-1.026.594a3.115,3.115,0,0,0,.162.756c.324,1.3.54,2.376.7,3.24.486,2.16.7,3.186,1.4,3.186a.765.765,0,0,0,.756-.486c.162-.432.216-.378.594-.54.54-.054,2-.162,2.376-.162.7,0,.972.162.972,1.08v.972c0,.378-.108.54-.486.54-.162,0-.378-.054-.594-.054-.54-.108-3.726-.756-4.05-.756-.54,0-.486.756-.54,1.134a95.137,95.137,0,0,1-1.08,9.612c-.054.378-.324,1.944-.324,2.16,0,1.188,3.51,2.16,3.888,2.16.756,0,.864-1.242.972-1.782.378-2.538,1.026-7.506,1.188-9.99.054-.432.108-1.134.648-1.134.324,0,.378.378.378.594V-6.1c0,2.808-.108,5.616-.108,8.424,0,1.512.432,1.566,2.268,1.566h2.214c1.566,0,2-.108,2-1.62,0-2.754-.162-5.562-.162-8.37v-8.8c0-.54.27-1.08.81-1.08.324,0,.432.378.486.54.216.648.216.972,1.188.972a6.523,6.523,0,0,0,2.7-.54,1.887,1.887,0,0,1,.7-.27c.486,0,.486.486.486.81v4.644c0,.27,0,.7-.27.7-.324,0-.378-.54-.432-.756-.648-3.24-.594-3.672-1.89-3.672-.594,0-3.294.216-3.294,1.08a2.339,2.339,0,0,1,.054.27c.162.756.756,3.672.864,4.482.108.972.216,1.782.324,2.484.324,2.592.378,3.186,1.08,3.186a8.932,8.932,0,0,0,2.376-.54,2.679,2.679,0,0,1,.7-.162c.486,0,.486.432.486.81,0,1.458-.108,2.916-.108,4.374,0,1.188.54,1.3,2.052,1.3h2.862c1.35,0,2.106-.108,2.214-.918.054-.7.054-1.08.972-1.08h13.932c2.106,0,4.266.162,6.372.162,1.242,0,1.35-.594,1.35-2.322V-2.916c0-1.728-.108-2.268-1.35-2.268-2.106,0-4.266.108-6.372.108H183.924a1.545,1.545,0,0,1-1.512-1.512V-9.5c0-.27.054-.864.432-.864.162,0,.378.216.54.324.648.486,2.214,1.62,3.024,1.62s1.4-1.134,1.836-1.944c.54-1.08,1.242-2.592,1.674-3.726.108-.162.27-.756.486-.756s.216.324.216.432v.432c0,2.106-.108,4.212-.108,6.318,0,1.3.486,1.4,1.836,1.4h2.646c1.458,0,1.89-.108,1.89-1.458,0-2.16-.108-4.266-.108-6.372,0-.162,0-.864.216-.864.27,0,.54.756.756,1.35.27.756.594,1.512.918,2.214.7,1.512,1.3,2.97,2.16,2.97,1.188,0,5.076-2.376,5.076-3.672a3.133,3.133,0,0,0-.81-1.566c-1.188-1.566-4.914-7.938-4.914-9.72,0-.756.81-.81,1.4-.81.864,0,1.728.108,2.592.108.81,0,.918-.486.918-2.106v-3.294c0-1.08-.108-1.674-.972-1.674-.918,0-2.16.162-3.78.162h-2.7a.853.853,0,0,1-.864-.864v-.378c0-.162.054-.432.27-.432a.768.768,0,0,1,.324.108,10.24,10.24,0,0,0,4,1.08c.7,0,.864-.432,1.08-1.026a74.4,74.4,0,0,0,2.214-7.722c.162-.648.162-.756.7-1.026.324-.162.594-.27.594-.486,0-.7-1.026-.918-2.052-1.188a30.083,30.083,0,0,0-4-.918c-.594,0-.648.27-.7.81a52.834,52.834,0,0,1-1.62,7.02c-.108.216-.27,1.026-.594,1.026-.216,0-.216-.432-.216-.594v-6.048c0-.594,0-.864.432-1.188.378-.27.7-.432.7-.918,0-.594-.54-.7-1.026-.756-.972-.108-4.806-.54-5.562-.54-.594,0-.81.324-.81.918.054.81.108,4,.108,5.562v5.832c0,.972-.486,1.728-1.512,1.728h-.594c-1.62,0-2.862-.162-3.78-.162-.864,0-.972.594-.972,1.512v4.1c0,1.026.162,1.458.972,1.458.54,0,1.188-.054,1.674-.054s.918.054.918.594c0,1.08-3.672,8.586-4.428,8.586-.378,0-.486-.54-.486-.81V-36.4c0-.594.054-1.728.054-2.322,0-.324,0-1.026.324-1.026.162,0,.378.432.594,1.026.594,1.728,1.242,5.13,1.4,5.886.054.594.162,1.3.918,1.3a9.747,9.747,0,0,0,2.754-.648c1.566-.486,1.89-.81,1.89-1.566a36.209,36.209,0,0,0-1.134-4.968c-1.512-4.914-1.674-4.968-2.538-4.968a7.824,7.824,0,0,0-1.89.378l-1.836.54a.2.2,0,0,1-.216-.216,1.12,1.12,0,0,1,.324-.54c.216-.162.378-.27.378-.594,0-.7-1.08-.7-1.62-.756-1.566-.054-3.942-.216-5.454-.216-.54,0-.972.108-.972.7,0,.216.054.378.054.594a33.421,33.421,0,0,1,.162,3.618c0,1.4-.054,2.808-.054,3.78V-20.3c0,.216,0,.756-.324.756-.27,0-.432-.7-.486-.918-.27-1.188-.54-2.376-.81-3.51-.864-3.186-.864-3.564-1.944-3.564-.216,0-.486.054-.7.054a5.457,5.457,0,0,1-.918.162c-.27,0-.54-.054-.54-.378A63.422,63.422,0,0,1,173.124-33.642ZM168.858-22.95c0,.756-1.242.81-1.836.81-.216,0-.486-.054-.486-.324a1.775,1.775,0,0,1,.378-.864c.216-.324.756-1.3,1.188-1.3C168.588-24.624,168.858-23.328,168.858-22.95Zm56.754,8.586c-.81,0-3.888.324-3.888,1.4a3.783,3.783,0,0,0,.162.756c.648,2.538,1.026,4.266,1.242,5.508.378,1.944.486,2.484,1.188,2.484.594,0,4.212-.594,4.212-2a30.053,30.053,0,0,0-.648-3.618C226.8-14.256,226.638-14.364,225.612-14.364ZM214.7-13.284c-.054.432-.108.648-.594.648-.108,0-3.348-.432-3.348-1.4,0-.54.432-.648.864-.7a14.759,14.759,0,0,1,2.16-.27c.432,0,.918.108.918.594Zm3.456-9.4c0-.216.216-.486.27-.648.378-.486.81-1.35,1.242-1.35.54,0,.81,1.35.81,1.566,0,.486-.648.432-1.782.594h-.324C218.268-22.518,218.16-22.572,218.16-22.68Zm21.06,10.152c.054-.7.054-.972.594-1.3.27-.162.756-.432.756-.81,0-.81-1.89-.972-3.78-1.134s-2.862-.162-2.862-.918a.853.853,0,0,1,.864-.864h12.636c.648,0,1.026.216,1.026.864,0,.81-.324,1.134-1.08,1.134a1.52,1.52,0,0,1-.432-.054c-.81-.054-4.7-.378-5.292-.378-.432,0-.918.108-.918.594a.8.8,0,0,0,.054.324,11.449,11.449,0,0,1,.108,2.052V-2.7c0,.648-.054,1.35-.054,2,0,3.024,1.512,3.51,4.212,3.51h4.806c2.754,0,4.428-.108,5.346-2.052a21.424,21.424,0,0,0,1.4-7.4,1.827,1.827,0,0,0-1.242-1.944A10.758,10.758,0,0,0,251.1-9.612c-1.134,0-1.188.594-1.242,1.512-.054,1.35-.108,3.294-.918,3.294h-.216c-.594,0-.648-.378-.648-1.566v-4.86c0-2,.162-2.7,1.512-2.7.27,0,.594.054.756.054h3.294c.918,0,2.106-.054,2.106-1.242,0-.324-.108-1.08-.108-1.944V-19.44c0-1.4.108-1.728.108-2.322,0-1.89-2.376-1.89-3.726-1.89-1.944,0-3.834.108-5.778.108h-9.774c-1.89,0-3.834-.108-5.724-.108-1.62,0-3.348.162-3.672,1.35-.054.216-.108.27-.216.27a.554.554,0,0,1-.27-.378c-.972-4.32-1.458-5.778-2.214-5.778a3.716,3.716,0,0,0-.7.108,14.557,14.557,0,0,1-1.512.216c-.216,0-.432-.054-.432-.324a7.4,7.4,0,0,1,.864-1.782l.216-.378c.7-1.242,1.4-2.322,2.106-3.672a1.234,1.234,0,0,1,1.242-.648,1.864,1.864,0,0,1,.7.162,1.845,1.845,0,0,0,.918.162c1.782,0,3.51-.108,5.292-.108h3.456a.853.853,0,0,1,.864.864v.7a.888.888,0,0,1-.864.864H234.2c-1.674,0-3.348-.108-4.86-.108-1.08,0-1.188.432-1.188,2v2.538c0,1.512.108,1.89,1.188,1.89,1.62,0,3.24-.108,4.86-.108H248.67c1.62,0,3.24.108,4.86.108,1.08,0,1.188-.378,1.188-2v-2.592c0-1.4-.108-1.836-1.188-1.836-1.512,0-3.186.108-4.86.108h-2.646a.929.929,0,0,1-.864-.864v-.7a.888.888,0,0,1,.864-.864H249.7c1.836,0,3.672.108,5.454.108,1.242,0,1.3-.432,1.3-3.132v-1.242c0-1.62-.108-2-1.35-2-1.782,0-3.564.108-5.4.108H246.78a1.476,1.476,0,0,1-1.512-1.512,1.439,1.439,0,0,1,.486-1.08c.378-.324.594-.486.594-.81,0-.756-1.026-.756-2.322-.918-1.026-.108-4.914-.432-5.778-.432-.594,0-1.08.108-1.08.81a1.666,1.666,0,0,0,.054.486c.054.486.108,1.35.108,1.89,0,.918-.432,1.566-1.458,1.566h-2.808c-1.782,0-3.618-.108-5.4-.108-.972,0-1.3.27-1.3,1.242v1.188c0,1.512-.054,2-.432,2a2.158,2.158,0,0,1-.972-.378,52.353,52.353,0,0,0-4.752-2.268c-.7,0-.81.594-1.08,1.188-.378.918-.81,1.782-1.3,2.7-.108.216-.162.27-.27.486-.432.864-.81,1.674-1.242,1.674a.772.772,0,0,1-.756-.756,5.588,5.588,0,0,1,.81-1.836c1.026-1.782,2-3.672,2.97-5.508a.723.723,0,0,1,.756-.432c.648,0,1.188-.108,1.188-.864,0-.7-.864-1.026-1.89-1.4a8.841,8.841,0,0,1-.81-.378,36.024,36.024,0,0,0-4-1.62c-.432,0-.54.378-.7.918-.486,1.674-1.026,3.348-1.566,4.968-.486,1.512-.648,2.268-1.242,2.322-.648.054-.756.054-1.62,1.728-.162.324-.324.594-.54,1.026a10.227,10.227,0,0,0-1.35,3.132c0,.54.54.918.918,1.188a33.461,33.461,0,0,1,3.024,2.592c.54.54,1.188,1.026,1.188,1.674a2.726,2.726,0,0,1-.486,1.242c-.27.432-.432.7-.648,1.08-.864,1.458-1.134,1.89-2.43,1.89h-.324c-.432,0-.972.054-.972.648a4.168,4.168,0,0,0,.108.81c.162.81,1.188,5.994,1.188,6.534a2.433,2.433,0,0,1-.108.756,1.157,1.157,0,0,0-.054.324v.486A39.729,39.729,0,0,1,207.2-.54a1.189,1.189,0,0,0-.054.432c0,1.242,3.294,1.782,4.212,1.782.756,0,1.08-.27,1.188-.972a67.1,67.1,0,0,0,1.026-7.56,11.3,11.3,0,0,0,.054-1.3c0-.756.162-2.754.648-2.754.324,0,.432.27.432.648v3.888c0,2.808-.162,5.67-.162,8.532,0,1.35.54,1.458,2.052,1.458H218c2.916,0,3.4,0,3.4-1.512,0-2.808-.108-5.67-.108-8.478v-9.072c0-.378.054-.864.54-.864.378,0,.432.486.432.756.054.486.108.972.918.972a15.763,15.763,0,0,0,2.7-.486,3.3,3.3,0,0,1,.7-.162c.216,0,.378.054.432.324.162.864.756,1.026,2.214,1.026h.7c1.4,0,2.214,0,2.214,1.188a9.883,9.883,0,0,1-1.188,4.1,15.459,15.459,0,0,1-6.1,5.832c-.432.27-1.134.594-1.134,1.188,0,1.458,2.916,5.184,4.644,5.184,1.08,0,3.24-1.782,4.05-2.484C236.736-2.592,238.626-6.858,239.22-12.528Zm56.268-24.3c-1.242,0-5.4,2.754-5.4,3.888a1.715,1.715,0,0,0,.594.972c3.4,3.618,5.454,7.83,7.506,12.1.486.972.756,1.458,1.35,1.458,1.512,0,6.426-2.808,6.426-4.59,0-1.026-3.618-6.318-4.428-7.452a39.738,39.738,0,0,0-4.374-5.4A2.46,2.46,0,0,0,295.488-36.828ZM305.1-46.71c-.594,0-3.348,2-3.348,2.754,0,.324.378.648.594.864a57.07,57.07,0,0,1,3.942,4.158c.162.27.486.7.81.7.594,0,3.186-2.052,3.186-3.132,0-.756-3.132-3.672-3.888-4.374C306.234-45.9,305.478-46.71,305.1-46.71Zm-5.292,4.1c-.648,0-3.348,2.052-3.348,2.808,0,.27.27.54.594.81a57,57,0,0,1,3.888,4.212c.27.324.594.648.81.648.648,0,3.186-2,3.186-3.078,0-.486-1.08-1.674-2.484-3.078C301.482-41.256,300.186-42.606,299.808-42.606Zm-24.624,2.214a68.167,68.167,0,0,1-.432,7.452c-.162,1.458-.486,1.89-1.89,2.16a58.593,58.593,0,0,1-8.262,1.35c-1.62.162-2,.324-2,1.026a29.3,29.3,0,0,0,.7,3.726c.486,2.106,1.134,4.212,2,4.212a2.588,2.588,0,0,0,1.08-.378,34.977,34.977,0,0,1,4.59-1.512.756.756,0,0,1,.864.81,2.963,2.963,0,0,1-.27.918,42.169,42.169,0,0,1-9.4,14.85c-.864.864-1.35,1.4-1.35,1.944,0,1.728,5.13,4.59,6.372,4.59a1.184,1.184,0,0,0,.918-.378,35.386,35.386,0,0,0,3.834-5.238,71.579,71.579,0,0,0,8.316-17.982c.486-1.782.972-2,2.754-2,2.106,0,2.484.81,2.484,3.294,0,3.294-.864,9.072-2.43,11.988-1.08,2.052-1.944,2.268-5.13,2.268-.756,0-1.512-.054-2.268-.054-.81,0-1.026.594-1.026,1.3a21.445,21.445,0,0,0,1.188,5.454C276.318.7,277.074.918,278.64.918c4.914,0,8.91-1.728,11.394-6.048,2.376-4.158,3.4-12.042,3.4-16.794,0-3.834-.7-7.02-4.536-9.234a9.444,9.444,0,0,0-4.482-1.188c-.7,0-1.836-.054-1.836-1.3,0-.162.108-.756.162-1.08l.108-.756c.216-1.512.432-2.97,1.3-3.4.486-.216.864-.378.864-.756,0-.54-.972-.756-1.4-.864-1.026-.27-7.128-1.728-7.668-1.728-.648,0-.756.486-.756,1.026Zm48.438,9.234c-.864,0-1.728-.054-2.592-.054h-.108c-1.188,0-1.35-.432-1.35-1.566,0-.7.486-.864,1.08-.864h9.018c1.134,0,1.242.432,1.242,1.674,0,.594-.486.81-1.026.81Zm16.416,0c-.7,0-.918-.324-.918-.648,0-.27.162-.378.378-.486.324-.162.648-.378.648-.756v-.27c0-.324.27-.324.7-.324h8.046c.648,0,1.134.162,1.134.918,0,.972-.054,1.512-1.188,1.512-1.08,0-2.16.054-3.24.054ZM330.264-25a.713.713,0,0,1,.7.7v.324a.715.715,0,0,1-.7.7H325.4c-1.89,0-3.834-.108-5.778-.108-1.3,0-1.458.54-1.458,2.052v2c0,1.62.108,2.214,1.458,2.214,1.944,0,3.834-.108,5.778-.108h4.1c.486,0,.864.216.864.756,0,.432-.27.864-1.026.864H318.384c-2.106,0-4.212-.108-6.318-.108-1.3,0-1.4.486-1.4,2.16v2.16c0,1.62.108,2.106,1.35,2.106,2.106,0,4.266-.108,6.372-.108h6.156c.7,0,1.188.054,1.188.54,0,.378-1.242,1.188-1.62,1.4A30.221,30.221,0,0,1,313.47-3.888c-1.89.324-3.024.324-3.024,1.62,0,1.188,1.35,5.724,3.4,5.724a24.6,24.6,0,0,0,3.294-.54c5.508-1.242,12.042-4.05,15.984-8.208a2.332,2.332,0,0,1,1.512-.972,2.6,2.6,0,0,1,1.566.918,26.606,26.606,0,0,0,6.642,5.184,42.962,42.962,0,0,0,10.206,3.78A8.25,8.25,0,0,0,355,4c1.134,0,1.62-.7,2.646-2.16a7.7,7.7,0,0,0,1.35-4c0-1.242-.972-1.242-2.106-1.4a36.614,36.614,0,0,1-10.26-3.24c-.648-.324-3.024-1.35-3.024-2.052,0-.54.486-.54,1.188-.54h6.264c2.106,0,4.212.108,6.318.108,1.3,0,1.4-.54,1.4-1.944v-2.214c0-1.728-.108-2.268-1.4-2.268-2.106,0-4.212.108-6.318.108H339.336c-.378,0-1.08,0-1.08-.756,0-.27.162-.864,1.08-.864h4.7c1.944,0,3.888.108,5.832.108,1.3,0,1.4-.54,1.4-2.106V-21.33c0-1.512-.108-2.052-1.4-2.052-1.944,0-3.888.108-5.832.108H339.39a.715.715,0,0,1-.7-.7V-24.3a.715.715,0,0,1,.7-.7h6.21c1.944,0,3.834.162,5.778.162,1.3,0,1.458-.54,1.458-1.836v-.216a1.564,1.564,0,0,1,1.728-1.458h1.026c1.62,0,2.43-.162,2.43-1.458,0-.756-.162-2.052-.162-3.24v-1.458c0-1.674.162-3.564.162-3.942,0-2.052-2.214-2.106-3.726-2.106-2.052,0-4.158.108-6.21.108H340.9c-.918,0-1.944-.27-1.944-1.4a2,2,0,0,1,.486-1.458c.324-.27.594-.486.594-.756,0-.648-.756-.7-1.782-.81a3.079,3.079,0,0,1-.7-.054c-1.512-.108-4.536-.324-5.994-.324-.594,0-1.188.054-1.188.756,0,.324.216,1.512.216,2.592s-.756,1.458-1.728,1.458h-7.344c-2.052,0-4.158-.108-6.21-.108-1.512,0-3.672.054-3.672,2.106,0,.54.108,2.322.108,3.942v1.3c0,1.08-.162,2.484-.162,3.24,0,1.458,1.188,1.458,2.754,1.458.216,0,.378-.054.54-.054a1.539,1.539,0,0,1,1.512,1.728v.162c0,1.134.054,1.836,1.4,1.836,1.944,0,3.888-.162,5.832-.162Zm35.964,6.966c0,5.994.756,11.88,3.348,17.334.594,1.188,1.08,2.052,2.052,2.052a9.392,9.392,0,0,0,2.754-.7c1.188-.486,2.862-1.3,2.862-2.754a6.2,6.2,0,0,0-.054-.972c-.054-.648-.162-1.566-.162-2.16,0-3.672,3.024-9.612,3.024-10.584,0-.81-2.754-2.592-3.51-2.592-.486,0-.81.648-1.35,1.944-.162.324-.324.7-.756.7-.54,0-.54-1.134-.54-2.268,0-5.13,1.188-11.988,3.24-16.146.7-1.4,1.08-2.214,2.484-2.754.27-.108.486-.216.486-.54s-.324-.648-1.3-1.08-7.29-3.24-7.83-3.24-.7.54-.81,1.026c-.432,1.782-.918,3.132-1.4,4.86A68.694,68.694,0,0,0,366.228-18.036Zm24.84-23.652c-.648,0-.864.27-.864.918,0,1.188.594,6.534.594,7.668,0,.972-.7,1.3-1.566,1.3-2.16,0-4.374-.108-6.588-.324-.486-.054-2.16-.216-2.484-.216-.864,0-1.026.756-1.026,1.458,0,.972.054,5.508.486,6.048.378.432,1.458.54,2.7.54h.81c2.268,0,5.994-.216,6.966-.216,1.188,0,1.4.864,1.4,2.7,0,.864.27,3.4.27,4.644a1.183,1.183,0,0,1-1.3,1.35h-1.242c-4.752,0-9.288,2.43-9.288,7.722,0,5.562,4.914,7.992,9.828,7.992,2.97,0,6.75-.864,8.424-3.564.378-.594.54-.864,1.026-.864a1.646,1.646,0,0,1,1.08.648c.216.216.432.378.648.594,1.134,1.08,1.944,1.782,2.754,1.782,1.62,0,4.266-3.456,4.266-4.968a3.214,3.214,0,0,0-1.242-2.268,31.116,31.116,0,0,0-5.778-4.1c-1.35-.7-1.836-.81-1.944-2.106-.054-.756-.378-8.1-.378-8.8,0-1.35.594-1.62,1.782-1.782,5.94-.81,6.426-1.08,6.426-2.43a23.006,23.006,0,0,0-.648-4.482c-.162-.81-.378-1.89-1.188-1.89a8.526,8.526,0,0,0-1.4.324,34.51,34.51,0,0,1-4,.918,1.138,1.138,0,0,1-1.188-1.3,8.5,8.5,0,0,1,.972-4.752,1.859,1.859,0,0,0,.432-.972c0-.378-.432-.486-.7-.54C397.764-40.878,392.2-41.688,391.068-41.688Zm-1.35,32.346c.81,0,2.484.054,2.484,1.134,0,1.458-1.188,1.89-2.43,1.89-1.134,0-2.862-.54-2.862-1.62C386.91-9.126,388.908-9.342,389.718-9.342ZM19.008,52.468a.639.639,0,0,1,.648.7v.216c0,.648-.324.864-1.188.918-.648.054-1.458.162-2.538.162h-.324a.777.777,0,0,1-.864-.81v-.324a.853.853,0,0,1,.864-.864Zm0-5.724a.67.67,0,0,1,.648.7v.378a.67.67,0,0,1-.648.7H15.444a.715.715,0,0,1-.7-.7v-.378a.715.715,0,0,1,.7-.7Zm-.216-5.508a.822.822,0,0,1,.864.864v.108a.888.888,0,0,1-.864.864H15.606a.888.888,0,0,1-.864-.864V42.1a.853.853,0,0,1,.864-.864Zm24.786,0c2.16,0,4.266.108,6.372.108,1.08,0,1.134-.54,1.134-2V37.78c0-1.4-.054-1.944-1.08-1.944-2.16,0-4.266.108-6.426.108H10.584c-2.16,0-4.266-.108-6.426-.108-.972,0-1.08.54-1.08,1.89V39.67c0,1.188.108,1.674,1.08,1.674.864,0,1.728-.054,2.592-.054.7,0,1.512.432,1.512,1.836v9.99c0,1.674-.864,1.836-2.538,1.89-1.62.054-2,.108-2,.54a26.433,26.433,0,0,0,.648,3.24c.378,1.62.81,3.78,1.512,3.78.486,0,.7-.378.864-.7.216-.486.324-.594.864-.648.864-.108,6.8-.864,9.45-1.242.648-.108,1.242-.216,1.35-.216.864,0,1.188.486,1.188,1.242,0,.81-.054,1.674-.054,2.214,0,1.512.324,1.62,2.43,1.62h2.484c1.674,0,2.268-.108,2.268-1.512,0-2.592-.162-5.184-.162-7.776v-12.8a1.476,1.476,0,0,1,1.512-1.512Zm-8.64-12.42a.715.715,0,0,1-.7.7H19.98a.715.715,0,0,1-.7-.7v-.324a.715.715,0,0,1,.7-.7H34.236a.652.652,0,0,1,.7.7Zm0-5.778a.681.681,0,0,1-.7.7H19.98a.715.715,0,0,1-.7-.7v-.162a.715.715,0,0,1,.7-.7H34.236a.715.715,0,0,1,.7.7Zm-13.23-5.724c-1.944,0-3.888-.108-5.832-.108-1.512,0-3.456.054-3.456,2.052,0,.918.108,2.268.108,3.834V28.6c0,1.62-.108,2.97-.108,3.834,0,2,1.89,2.106,3.456,2.106,1.944,0,3.888-.108,5.832-.108h10.8c1.944,0,3.888.108,5.832.108,1.566,0,3.456-.054,3.456-2.106,0-.972-.108-2.322-.108-3.834V23.092c0-1.4.108-2.7.108-3.834,0-2-1.944-2.052-3.456-2.052-1.944,0-3.888.108-5.832.108ZM39.042,48.526c.7,0,1.08.108,1.08.486,0,.27-1.08,2.16-1.782,2.16a1.1,1.1,0,0,1-.864-.486c-.27-.324-.432-.54-.648-.756-.486-.486-.648-.7-.648-.972,0-.432.486-.432.81-.432ZM34.29,43.4c-1.836,0-3.672-.108-5.508-.108-1.08,0-1.188.378-1.188,1.512v2.268c0,1.134.108,1.566,1.134,1.566.486,0,1.026-.054,1.512-.054.108,0,.378,0,.378.108s0,.108-.324.27a.914.914,0,0,0-.486.756c0,1.026,2.214,4.05,2.862,4.86a1.742,1.742,0,0,1,.54,1.026c0,.54-.324.756-.7,1.026-1.026.648-2.052,1.134-3.078,1.728l-.378.216c-.756.432-1.62.864-1.62,1.566,0,1.242,2.214,4.86,3.78,4.86,1.242,0,4.536-2.376,5.616-3.186a3.909,3.909,0,0,1,2.052-1.026,2.154,2.154,0,0,1,1.3.486c1.026.756,5.832,3.51,6.858,3.51,1.35,0,4.32-4.32,4.32-5.454,0-.432-.432-.594-1.242-.864-1.458-.54-2.97-1.08-4.428-1.728-.864-.378-1.674-.7-1.674-1.35a2.888,2.888,0,0,1,.7-1.4c.918-1.188,4-5.508,4-6.8a4.138,4.138,0,0,0-1.4-2.484,3.276,3.276,0,0,0-2.862-1.35c-1.08,0-2.16.054-3.24.054ZM63.342,40.21a.981.981,0,0,1-.972-1.026c0-.378.162-2.43.216-2.916.108-.81.594-.972,1.3-.972a.7.7,0,0,1,.7.486c.324.81.81.81,2.862.81h1.782c1.944,0,2.538-.108,2.538-1.458,0-1.674-.108-3.348-.108-5.076V24.712c0-1.944.108-3.888.108-5.832,0-1.674-1.242-1.89-2.592-1.89-1.188,0-2.322.162-3.456.162H59.832c-1.458,0-2.268-.162-2.916-.162-1.35,0-1.458.432-1.458,2.592v2.592c0,1.674.108,2.214,1.4,2.214.594,0,1.836-.108,2.97-.108h3.294a1.509,1.509,0,0,1,1.512,1.512v.918c0,.756-.54,1.458-1.782,1.458-1.026,0-2.052-.054-3.078-.054-2.322,0-3.672.054-3.834,2.16-.108,1.458-1.08,11.934-1.458,15.012-.054.432-.162,1.188-.162,1.566,0,1.782,3.348,1.782,4.59,1.782.594,0,2.052,0,2.322-.594a1.221,1.221,0,0,1,1.134-.756c1.134,0,1.782.27,1.782,1.512A32.309,32.309,0,0,1,63.5,54.79c-.324,1.566-.54,1.782-2.7,1.782-.7,0-1.89-.108-2.592-.108-1.4,0-1.512,1.4-1.512,2.484A14.7,14.7,0,0,0,57.294,63c.486,1.728,1.3,1.89,3.456,1.89A13.072,13.072,0,0,0,66.636,63.7c1.89-.972,2.754-3.348,3.294-5.292A56.237,56.237,0,0,0,71.6,44.314c0-2.376-.054-4.158-3.024-4.158-1.242,0-2.484.054-3.672.054Zm29.106,1.026a1.073,1.073,0,0,1,1.08,1.026v2a1.073,1.073,0,0,1-1.08,1.026h-.54a1.073,1.073,0,0,1-1.08-1.026v-2a1.038,1.038,0,0,1,1.08-1.026Zm-9.774,0A1.025,1.025,0,0,1,83.7,42.262v2a1.025,1.025,0,0,1-1.026,1.026H82.3A1.025,1.025,0,0,1,81.27,44.26v-2A1.025,1.025,0,0,1,82.3,41.236ZM74.142,56.572c-2.538.054-2.808.108-2.808.594,0,.27.54,3.348.756,4.59.486,2.538.648,3.4,1.4,3.4.378,0,.54-.216.756-.756s.378-.7,1.08-.756c1.35-.108,9.882-.972,15.066-1.512,2.43-.27,3.726-.432,3.888-.432a1.36,1.36,0,0,1,1.4,1.188c.216.918.378,1.944,1.458,1.944.54,0,5.94-.972,5.94-2.484a35.518,35.518,0,0,0-1.62-5.184c-1.458-3.834-1.89-5.13-2.916-5.13-.81,0-5.94.7-5.94,1.782a.919.919,0,0,0,.054.378,1.451,1.451,0,0,1,.216.7c0,.594-.432.7-.918.7a1.107,1.107,0,0,1-1.134-1.242v-1.89a.888.888,0,0,1,.864-.864H92.88c1.782,0,3.564.054,5.346.054,1.458,0,2.322-.216,2.322-1.89,0-1.4-.054-2.808-.054-4.266V41.02c0-1.4.054-2.862.054-4.266,0-1.728-1.026-1.836-2.43-1.836-1.728,0-3.51.054-5.238.054h-.7a1.256,1.256,0,0,1-1.242-1.242,1.122,1.122,0,0,1,.486-1.026c.324-.27.864-.54.864-1.026,0-.324-.324-.486-.648-.54-.108,0-.216,0-.216-.162s.27-.162.54-.162c.27-.054,2.268-.216,2.43-.216,1.026,0,1.188.594,1.458,1.458.324.972.594,1.728,1.728,1.728.81,0,5.346-1.026,5.346-2.862,0-.918-2.052-5.292-2.592-6.372a50.65,50.65,0,0,0-2.754-5.076,1.31,1.31,0,0,0-1.3-.756c-.918,0-5.562,1.026-5.562,2.16a2.251,2.251,0,0,0,.432.972,7.818,7.818,0,0,1,1.026,2c0,.432-.27.594-1.026.648-1.4.054-3.78.162-4.914.162-.378,0-.81-.162-.81-.648a33.457,33.457,0,0,1,1.89-3.456c.27-.486.486-.864.594-1.026a.863.863,0,0,1,.7-.486c.81-.216,1.3-.432,1.3-.972,0-.756-1.566-1.08-3.78-1.566-.7-.162-4.32-.918-4.806-.918s-.648.648-.81,1.4a46.145,46.145,0,0,1-2.16,6.7c-.432.972-.918,1.08-2,1.134-.81.054-2,.054-2.484.054H73.44c-.54,0-.756.216-.756.7s.918,5.94,1.08,6.642c.108.432.324.972.81.972.378,0,.594-.324.81-.54a1.082,1.082,0,0,1,.648-.54c.756-.054,6.372-.54,6.534-.54,1.134,0,1.134,1.134,1.134,2.106a1.326,1.326,0,0,1-1.35,1.3h-.486c-1.728,0-3.456-.054-5.184-.054-1.566,0-2.484.108-2.484,1.944,0,1.4.054,2.754.054,4.158v6.318c0,1.566-.054,3.78-.054,4.644,0,1.566.378,1.728,2.376,1.728h3.294c.918,0,1.458-.108,1.458-1.026v-.216c0-.756.594-.864,1.188-.864h.324a.853.853,0,0,1,.864.864V54.3c0,1.566-.486,1.836-1.944,1.944C79.974,56.356,76.032,56.518,74.142,56.572Zm56.97-35.1a22.879,22.879,0,0,0-23,23.274,18.278,18.278,0,0,0,1.782,8.1c1.62,3.078,4.59,5.562,8.208,5.562,3.24,0,5.832-2.052,7.83-4.482,4.968-5.94,7.128-15.12,7.722-22.626.054-.972.162-1.944,1.08-1.944,1.62,0,8.1,3.348,8.1,11.826,0,6.912-5.13,10.854-11.394,12.474-1.566.378-2.052.594-2.052,1.08,0,1.512,2.862,6.48,4.752,6.48,1.512,0,5.076-1.674,6.426-2.43a20.238,20.238,0,0,0,10.854-17.928,19,19,0,0,0-5.724-13.878C141.8,23.092,136.62,21.472,131.112,21.472Zm-6.372,9.072c.486,0,.7.378.7.81,0,1.944-1.512,9.936-3.4,13.824-.54,1.134-2.376,4.7-3.672,4.7-1.89,0-2.214-3.942-2.214-5.238C116.154,35.512,123.174,30.544,124.74,30.544ZM197.262,17.1c-.594,0-3.618,1.566-3.618,2.322a1.44,1.44,0,0,0,.378.756c.972,1.242,2,2.7,2.862,4.05.7,1.134.918,1.512,1.3,1.512.594,0,3.51-1.62,3.51-2.7C201.69,22.282,197.856,17.1,197.262,17.1Zm6.1-3.294c-.648,0-3.618,1.566-3.618,2.376a1.44,1.44,0,0,0,.378.756,47.107,47.107,0,0,1,3.4,4.7c.27.432.486.81.81.81.648,0,3.51-1.728,3.51-2.7C207.846,18.988,203.958,13.8,203.364,13.8Zm-19.17,11.664c-.54,0-1.026-.216-1.026-.864a5.416,5.416,0,0,1,.864-1.782,2.189,2.189,0,0,0,.27-.486,2.539,2.539,0,0,1,1.4-1.3c.486-.216.54-.324.54-.594,0-.162-.162-.27-.324-.324-.378-.162-1.566-.7-2.916-1.3a45.231,45.231,0,0,0-5.4-2.214c-.648,0-.918.864-1.08,1.35-2.322,6.7-8.856,15.5-14.526,19.656-.432.324-1.026.756-1.026,1.242,0,.54,1.3,1.674,2.754,2.7a9.894,9.894,0,0,0,3.564,1.89c.972,0,2.106-1.242,2.7-1.89a94.238,94.238,0,0,0,6.426-7.506c.7-1.026,1.188-1.134,2.646-1.134h7.344c.7,0,1.89.108,1.89,1.026a12.771,12.771,0,0,1-1.08,2.916c-.648,1.4-1.08,2.43-2.052,2.43a2.187,2.187,0,0,1-1.134-.378c-.918-.54-5.13-2.808-5.886-2.808-1.62,0-4.644,4.86-4.644,5.724,0,.648,1.134,1.08,1.674,1.3A42.322,42.322,0,0,1,179.6,45.34a1.128,1.128,0,0,1,.648.972c0,1.512-8.37,7.83-15.282,9.828-.27.108-.54.162-.81.27-1.242.324-1.944.54-1.944,1.134,0,.7,1.566,2.7,2.106,3.4.7.918,2.052,2.538,3.294,2.538,1.728,0,7.236-2.97,8.91-4a47.11,47.11,0,0,0,9.72-7.884,1.533,1.533,0,0,1,1.134-.7c.756,0,2.376,1.674,2.916,2.214a1.3,1.3,0,0,0,.864.486c1.4,0,5.022-4.752,5.022-5.724,0-.648-2.16-2.322-2.754-2.754a1.745,1.745,0,0,1-.972-1.458,2.482,2.482,0,0,1,.54-1.3,91.314,91.314,0,0,0,4.7-9.5,14.258,14.258,0,0,1,.972-2.052,1.716,1.716,0,0,0,.162-.486c0-1.35-2.808-4.968-4.212-4.968h-.324a11.738,11.738,0,0,1-1.944.108ZM237.33,34.81a3.552,3.552,0,0,1,1.242-2.754c4.05-4.1,6.426-7.074,7.722-8.37a3.436,3.436,0,0,1,1.944-.918c.324-.108.7-.216.7-.594,0-.324-.432-.864-1.08-1.35-1.62-1.188-6.156-4.482-6.966-4.482-.378,0-.594.378-.7.648a55.7,55.7,0,0,1-4.968,6.75A64.665,64.665,0,0,1,221.454,35.4a75.98,75.98,0,0,1-10.53,5.616c-.486.162-1.134.378-1.134.972,0,1.4,5.076,6.372,6.318,6.372S224.8,43.4,226.26,42.37a3.634,3.634,0,0,1,1.566-.81c.7,0,.972.54.972,1.35V54.952c0,2.43-.108,4.86-.108,7.29,0,1.242.378,1.566,2.916,1.566h2.214c2.7,0,3.618-.054,3.618-1.728,0-1.026-.054-2.052-.054-3.024,0-1.458-.054-2.916-.054-4.374ZM274.212,25.2c-2.538,0-5.076-.108-7.614-.108-1.566,0-1.566.7-1.566,3.834V31.03c0,1.512.108,2.376,1.836,2.376,2.376,0,4.752-.108,7.128-.108h2.97a1.706,1.706,0,0,1,1.728,1.728V46.744a1.682,1.682,0,0,1-1.674,1.674h-7.128c-2.538,0-6.588-.162-7.236-.162-1.3,0-1.512.54-1.512,2.7v1.728c0,2.646,0,4,1.782,4,1.566,0,4.59-.162,6.966-.162h26.136c2.376,0,5.4.162,6.966.162,1.782,0,1.782-1.35,1.782-4V51.01c0-2.214-.216-2.754-1.566-2.754-.594,0-4.644.162-7.182.162H288.9a1.682,1.682,0,0,1-1.674-1.674V35.026a1.706,1.706,0,0,1,1.728-1.728h2.916c2.43,0,4.806.108,7.182.108,1.728,0,1.836-.864,1.836-2.376V28.978c0-3.132,0-3.888-1.62-3.888-2.538,0-5.022.108-7.56.108Zm51.246,8.532a1.716,1.716,0,0,0-1.08-.756c-.972,0-5.4,2-5.4,3.132a2.174,2.174,0,0,0,.486,1.08,67.206,67.206,0,0,1,4.266,7.128c.216.432.54,1.08,1.134,1.08.81,0,5.562-2.106,5.562-3.456a3.548,3.548,0,0,0-.432-1.188A44.648,44.648,0,0,0,325.458,33.73Zm9.4-3.78c-1.026,0-5.454,2.052-5.454,3.078a1.409,1.409,0,0,0,.378.918,55.433,55.433,0,0,1,4.374,7.29c.27.486.594,1.08,1.188,1.08.81,0,5.508-2.106,5.508-3.4a2.669,2.669,0,0,0-.324-1.026,46.649,46.649,0,0,0-4.7-7.29A1.612,1.612,0,0,0,334.854,29.95Zm10.8,1.026c-.54,0-.7.7-.81,1.188a31.436,31.436,0,0,1-4,12.042,21.486,21.486,0,0,1-7.938,7.614,37.97,37.97,0,0,1-8.8,3.672c-.594.162-.972.378-.972,1.08a5.588,5.588,0,0,0,1.08,2.214c.108.162.216.27.27.378.54.756,1.944,2.754,2.808,2.754a7.3,7.3,0,0,0,1.782-.486c6.264-2.106,10.908-4.7,15.228-9.828,4.158-4.968,5.508-9.072,7.344-15.12.27-.972.378-.972.864-1.35.432-.324.7-.594.7-.864,0-.81-1.566-1.3-3.186-1.836A34.567,34.567,0,0,0,345.654,30.976ZM388.26,42.964c0-.54.054-1.3.81-1.3.864,0,5.292,4,6.21,4.86.324.324.864.864,1.35.864,1.242,0,5.184-4.374,5.184-5.454a1.391,1.391,0,0,0-.378-.864,63.919,63.919,0,0,0-4.968-4.374c-.7-.54-2.916-2.268-4.644-3.348a5.57,5.57,0,0,0-2-.864c-.27,0-.594.216-.918.216-.594,0-.648-.486-.648-.756V21.472a2.812,2.812,0,0,1,.594-1.944.941.941,0,0,0,.324-.648c0-.324-.27-.54-.594-.648a80.191,80.191,0,0,0-8.316-1.08c-.756,0-.864.324-.864,1.026,0,1.674.108,4.482.108,6.7V56.032c0,2.16-.108,4.266-.108,6.426,0,1.4.648,1.674,2.808,1.674h2.43c3.51,0,3.672-.216,3.672-2.808,0-1.836-.054-3.618-.054-5.4Z" transform="translate(11.92 58.71)"/></g></svg>